<svg xmlns="http://www.w3.org/2000/svg" width="900" height="600"><defs><clipPath clipPathUnits="userSpaceOnUse" id="a"><path d="m -109.44854,181.5283 c -0.0743,0.005 -0.14904,0.007 -0.22429,0.007 -1.64187,0 -5.45544,-0.84238 -6.92547,-2.10534 -1.53974,1.16668 -5.41628,2.10534 -7.03156,2.10534 -0.0758,0 -0.15062,-0.009 -0.22481,-0.0229 -0.004,0.36798 0.0154,0.74941 0.0382,1.09633 0.0855,1.29667 0.3129,2.59794 0.65818,3.85022 1.08693,3.94096 3.31152,7.29006 6.50134,9.83059 3.19246,-2.54265 5.41973,-5.89492 6.50902,-9.8388 0.34583,-1.25198 0.57398,-2.55315 0.66026,-3.84968 0.0202,-0.36299 0.0404,-0.80747 0.0391,-1.07276 z" fill="#fff" stroke="#c09300" stroke-width=".242"/></clipPath></defs><path d="M 0,0 H 900 V 600 H 0 Z"/><path d="M 0,0 H 900 V 400 H 0 Z" fill="#fff"/><path d="M 0,0 H 900 V 200 H 0 Z" fill="#ce1126"/><path d="m 741.329,659.042 c 32.762,0 64.106,-2.592 82.488,-7.778 7.779,-1.411 7.779,-5.418 7.779,-10.606 7.779,-2.592 3.77,-11.781 9.19,-11.781 -5.42,1.417 -6.597,-9.191 -13.196,-7.774 0,-9.195 -9.192,-10.372 -16.969,-7.784 -15.556,5.188 -43.13,6.367 -69.291,6.367 -26.159,-1.179 -53.499,-1.179 -69.29,-6.367 -7.777,-2.588 -16.965,-1.411 -16.965,7.784 -6.601,-1.417 -7.779,9.191 -13.198,7.774 5.419,0 1.412,9.189 9.19,11.781 0,5.188 0,9.195 8.013,10.606 18.144,5.186 49.492,7.778 82.249,7.778 z" fill="#fff" stroke="#fac800" stroke-width="3.906" stroke-linecap="round" stroke-linejoin="round" transform="matrix(0.22949394,0,0,0.22949394,172.11953,1126.6137) translate(1007.2241,-3446.3024) matrix(2.6115489,0,0,2.6111572,-1732.401,-1467.6032)"/><path transform="matrix(0.22949394,0,0,0.22949394,172.11953,1126.6137) translate(1007.2241,-3446.3024) matrix(2.6111572,0,0,2.6111572,-1732.4578,-1467.6032)" d="m 666.979,626.281 c -2.595,0 -2.595,1.416 0,1.416 1.176,0 1.176,-1.416 0,-1.416 z" fill="#fdd220" stroke="#fac800" stroke-width="2.087" stroke-linecap="round" stroke-linejoin="round"/><path transform="matrix(0.22949394,0,0,0.22949394,172.11953,1126.6137) translate(1007.2241,-3446.3024) matrix(2.6111572,0,0,2.6111572,-1732.4578,-1467.6032)" d="m 666.979,621.102 c -1.416,0 -1.416,2.59 0,2.59 2.596,-10e-4 2.596,-2.59 0,-2.59 z" fill="#fdd220" stroke="#fac800" stroke-width="2.087" stroke-linecap="round" stroke-linejoin="round"/><path transform="matrix(0.22949394,0,0,0.22949394,172.11953,1126.6137) translate(1007.2241,-3446.3024) matrix(2.6111572,0,0,2.6111572,-1732.4578,-1467.6032)" d="m 666.979,640.657 c -1.416,0 -1.416,2.593 0,2.593 1.176,0 1.176,-2.593 0,-2.593 z" fill="#fdd220" stroke="#fac800" stroke-width="2.087" stroke-linecap="round" stroke-linejoin="round"/><path transform="matrix(0.22949394,0,0,0.22949394,172.11953,1126.6137) translate(1007.2241,-3446.3024) matrix(2.6111572,0,0,2.6111572,-1732.4578,-1467.6032)" d="m 672.162,642.072 c -2.587,0 -2.587,2.593 0,2.593 1.418,0 1.418,-2.593 0,-2.593 z" fill="#fdd220" stroke="#fac800" stroke-width="2.087" stroke-linecap="round" stroke-linejoin="round"/><path transform="matrix(0.22949394,0,0,0.22949394,172.11953,1126.6137) translate(1007.2241,-3446.3024) matrix(2.6111572,0,0,2.6111572,-1732.4578,-1467.6032)" d="m 677.348,643.25 c -1.177,0 -1.177,2.596 0,2.596 2.593,0 2.593,-2.596 0,-2.596 z" fill="#fdd220" stroke="#fac800" stroke-width="2.087" stroke-linecap="round" stroke-linejoin="round"/><path transform="matrix(0.22949394,0,0,0.22949394,172.11953,1126.6137) translate(1007.2241,-3446.3024) matrix(2.6111572,0,0,2.6111572,-1732.4578,-1467.6032)" d="m 758.438,630.293 c -1.183,0 -1.183,2.588 0,2.588 1.412,0 1.412,-2.588 0,-2.588 z" fill="#fdd220" stroke="#fac800" stroke-width="2.087" stroke-linecap="round" stroke-linejoin="round"/><path transform="matrix(0.22949394,0,0,0.22949394,172.11953,1126.6137) translate(1007.2241,-3446.3024) matrix(2.6111572,0,0,2.6111572,-1732.4578,-1467.6032)" d="m 759.85,635.477 c -2.594,0 -2.594,1.18 0,1.18 1.178,-0.001 1.178,-1.18 0,-1.18 z" fill="#fdd220" stroke="#fac800" stroke-width="2.087" stroke-linecap="round" stroke-linejoin="round"/><path transform="matrix(0.22949394,0,0,0.22949394,172.11953,1126.6137) translate(1007.2241,-3446.3024) matrix(2.6111572,0,0,2.6111572,-1732.4578,-1467.6032)" d="m 763.624,648.439 c -1.181,0 -1.181,2.824 0,2.824 1.413,10e-4 1.413,-2.824 0,-2.824 z" fill="#fdd220" stroke="#fac800" stroke-width="2.087" stroke-linecap="round" stroke-linejoin="round"/><path transform="matrix(0.22949394,0,0,0.22949394,172.11953,1126.6137) translate(1007.2241,-3446.3024) matrix(2.6111572,0,0,2.6111572,-1732.4578,-1467.6032)" d="m 769.043,648.439 c -2.83,0 -2.83,2.824 0,2.824 1.179,10e-4 1.179,-2.824 0,-2.824 z" fill="#fdd220" stroke="#fac800" stroke-width="2.087" stroke-linecap="round" stroke-linejoin="round"/><path transform="matrix(0.22949394,0,0,0.22949394,172.11953,1126.6137) translate(1007.2241,-3446.3024) matrix(2.6111572,0,0,2.6111572,-1732.4578,-1467.6032)" d="m 822.548,638.065 c -2.59,0 -2.59,1.417 0,1.417 1.415,0 1.415,-1.417 0,-1.417 z" fill="#fdd220" stroke="#fac800" stroke-width="2.087" stroke-linecap="round" stroke-linejoin="round"/><path d="m 672.039,621.102 c -1.411,5.18 -2.587,10.368 -4.007,12.96 0,2.595 1.42,4.004 2.595,4.004 4.008,1.417 4.008,1.417 5.42,-4.004 1.177,-2.592 0,-2.592 0,0 -1.412,4.004 -2.591,5.421 2.591,6.596 3.772,1.415 5.185,0 6.363,-5.181 0,-2.596 -2.591,-1.415 -1.178,0" fill="none" stroke="#fac800" stroke-width="2.087" stroke-linecap="round" stroke-linejoin="round" transform="matrix(0.22949394,0,0,0.22949394,172.11953,1126.6137) translate(1007.2241,-3446.3024) matrix(2.6115489,0,0,2.6111572,-1732.401,-1467.6032)"/><path d="m 669.452,631.47 c -6.6,1.411 -4.011,5.187 1.176,6.596" fill="none" stroke="#fac800" stroke-width="2.087" stroke-linecap="round" stroke-linejoin="round" transform="matrix(0.22949394,0,0,0.22949394,172.11953,1126.6137) translate(1007.2241,-3446.3024) matrix(2.6115489,0,0,2.6111572,-1732.401,-1467.6032)"/><path d="m 686.418,645.846 c 2.592,-1.181 4.004,-3.773 4.004,-6.363 -1.412,-4.006 -2.591,-2.826 -1.412,0 0,2.59 1.412,3.768 5.185,3.768 2.593,0 5.185,-1.178 8.013,-2.593 2.591,-1.175 2.591,-5.181 0,-6.596 -4.006,-1.181 -6.599,4.004 -2.827,6.596 1.411,1.415 2.827,2.593 5.418,4.008 0,1.181 0,3.774 2.593,3.774 1.181,1.413 3.774,-2.594 3.774,-6.367 0,-5.416 0,-9.191 0,-11.779" fill="none" stroke="#fac800" stroke-width="2.087" stroke-linecap="round" stroke-linejoin="round" transform="matrix(0.22949394,0,0,0.22949394,172.11953,1126.6137) translate(1007.2241,-3446.3024) matrix(2.6115489,0,0,2.6111572,-1732.401,-1467.6032)"/><path d="m 716.586,630.293 c 0,3.769 -1.416,10.364 -1.416,14.372" fill="none" stroke="#fac800" stroke-width="2.087" stroke-linecap="round" stroke-linejoin="round" transform="matrix(0.22949394,0,0,0.22949394,172.11953,1126.6137) translate(1007.2241,-3446.3024) matrix(2.6115489,0,0,2.6111572,-1732.401,-1467.6032)"/><path d="m 719.177,652.443 c 5.185,-4.004 5.185,-6.598 5.185,-9.193 -1.414,-3.768 -4.007,-2.593 -2.593,0 1.179,1.415 2.593,2.596 5.184,2.596 1.417,0 2.593,-1.181 2.593,-6.363 0,-1.417 -1.176,-1.417 -1.176,0 0,1.175 3.767,1.175 5.18,1.175 2.593,1.415 9.193,1.415 10.374,0 1.41,0 1.41,4.008 1.41,4.008 0,1.181 -1.41,2.594 -1.41,3.774 -1.181,2.824 -2.596,1.413 -4.009,0 0,-2.594 -2.594,-2.594 -3.772,-2.594 -2.593,0 -5.181,0 -9.191,0" fill="none" stroke="#fac800" stroke-width="2.087" stroke-linecap="round" stroke-linejoin="round" transform="matrix(0.22949394,0,0,0.22949394,172.11953,1126.6137) translate(1007.2241,-3446.3024) matrix(2.6115489,0,0,2.6111572,-1732.401,-1467.6032)"/><path d="m 745.336,645.846 c 1.18,0 3.772,-1.181 5.185,0 1.179,0 4.008,-1.181 4.008,-2.596 0,-3.768 -6.601,-3.768 -4.008,2.596" fill="none" stroke="#fac800" stroke-width="2.087" stroke-linecap="round" stroke-linejoin="round" transform="matrix(0.22949394,0,0,0.22949394,172.11953,1126.6137) translate(1007.2241,-3446.3024) matrix(2.6115489,0,0,2.6111572,-1732.401,-1467.6032)"/><path d="m 763.487,630.293 c 1.413,5.184 1.413,11.779 0,14.372 -1.181,1.181 -3.774,1.181 -3.774,0 1.179,-1.415 3.774,-2.593 5.187,-1.415 0,1.415 1.176,2.596 4.005,1.415 2.591,0 3.77,0 3.77,-6.6 0,-1.409 -3.77,-1.409 0,1.417" fill="none" stroke="#fac800" stroke-width="2.087" stroke-linecap="round" stroke-linejoin="round" transform="matrix(0.22949394,0,0,0.22949394,172.11953,1126.6137) translate(1007.2241,-3446.3024) matrix(2.6115489,0,0,2.6111572,-1732.401,-1467.6032)"/><path d="m 776.684,649.853 c 2.591,-2.594 5.185,-7.78 3.768,-10.37 -2.591,-2.826 -3.768,-2.826 -3.768,0 0,1.175 1.177,2.59 3.768,3.768" fill="none" stroke="#fac800" stroke-width="2.087" stroke-linecap="round" stroke-linejoin="round" transform="matrix(0.22949394,0,0,0.22949394,172.11953,1126.6137) translate(1007.2241,-3446.3024) matrix(2.6115489,0,0,2.6111572,-1732.401,-1467.6032)"/><path d="m 785.874,647.259 c 3.768,-1.413 3.768,-4.009 3.768,-6.602 0,-2.592 -1.177,-4.001 -2.593,-2.592 -2.589,1.417 -2.589,4.007 0,4.007 5.189,0 14.382,-1.415 20.977,-5.416" fill="none" stroke="#fac800" stroke-width="2.087" stroke-linecap="round" stroke-linejoin="round" transform="matrix(0.22949394,0,0,0.22949394,172.11953,1126.6137) translate(1007.2241,-3446.3024) matrix(2.6115489,0,0,2.6111572,-1732.401,-1467.6032)"/><path d="m 795.064,640.657 c 0,-2.592 1.179,-5.181 3.772,-5.181 1.414,-1.415 5.184,0 5.184,2.589 1.415,2.592 -1.177,5.185 -3.77,4.007 -1.414,-2.59 -2.592,-9.191 -4.007,-14.375" fill="none" stroke="#fac800" stroke-width="2.087" stroke-linecap="round" stroke-linejoin="round" transform="matrix(0.22949394,0,0,0.22949394,172.11953,1126.6137) translate(1007.2241,-3446.3024) matrix(2.6115489,0,0,2.6111572,-1732.401,-1467.6032)"/><path d="m 815.805,634.062 c -2.591,-2.592 -9.194,0 -7.779,2.595 1.414,4 9.19,1.408 7.779,-2.595 z" fill="none" stroke="#fac800" stroke-width="2.087" stroke-linecap="round" stroke-linejoin="round" transform="matrix(0.22949394,0,0,0.22949394,172.11953,1126.6137) translate(1007.2241,-3446.3024) matrix(2.6115489,0,0,2.6111572,-1732.401,-1467.6032)"/><path d="m 815.805,635.477 c 0,0 2.592,-1.415 4.007,-2.596" fill="none" stroke="#fac800" stroke-width="2.087" stroke-linecap="round" stroke-linejoin="round" transform="matrix(0.22949394,0,0,0.22949394,172.11953,1126.6137) translate(1007.2241,-3446.3024) matrix(2.6115489,0,0,2.6111572,-1732.401,-1467.6032)"/><path d="m 809.44,621.102 c 2.593,-2.596 7.776,-2.596 7.776,2.59 0,9.189 3.775,12.965 9.194,9.189 0,-1.411 0,-2.588 -1.413,0" fill="none" stroke="#fac800" stroke-width="2.087" stroke-linecap="round" stroke-linejoin="round" transform="matrix(0.22949394,0,0,0.22949394,172.11953,1126.6137) translate(1007.2241,-3446.3024) matrix(2.6115489,0,0,2.6111572,-1732.401,-1467.6032)"/><path d="m 695.609,636.656 h 2.593" fill="none" stroke="#fac800" stroke-width="2.087" stroke-linecap="round" stroke-linejoin="round" transform="matrix(0.22949394,0,0,0.22949394,172.11953,1126.6137) translate(1007.2241,-3446.3024) matrix(2.6115489,0,0,2.6111572,-1732.401,-1467.6032)"/><path d="m 704.798,638.065 h 1.18" fill="none" stroke="#fac800" stroke-width="2.087" stroke-linecap="round" stroke-linejoin="round" transform="matrix(0.22949394,0,0,0.22949394,172.11953,1126.6137) translate(1007.2241,-3446.3024) matrix(2.6115489,0,0,2.6111572,-1732.401,-1467.6032)"/><path transform="matrix(0.22949394,0,0,0.22949394,172.11953,1126.6137) translate(1007.2241,-3446.3024) matrix(2.6111572,0,0,2.6111572,-1732.4578,-1467.6032)" d="m 742.785,508.857 112.525,104.46 -8.011,-189.716 c -1.177,-28.752 -26.163,-22.155 -44.313,-11.784 -18.387,11.784 -39.362,11.784 -61.523,4.004 -22.156,7.78 -43.134,7.78 -61.521,-4.004 -18.148,-10.371 -43.132,-16.969 -44.312,11.784 l -8.016,189.716 z" fill="#fff" stroke="#fac800" stroke-width="2.087" stroke-linecap="round" stroke-linejoin="round"/><path d="m 746.515,529.651 15.791,71.889 -5.187,5.184 -5.42,-4.007 -8.956,-64.106 3.771,64.106 -5.186,6.598 -5.185,-6.598 3.772,-64.106 -8.954,64.106 -5.425,4.007 -5.182,-5.184 15.789,-71.889 z" fill="#fac800" stroke="#fac800" stroke-width="1.764" stroke-linecap="square" transform="matrix(0.22949394,0,0,0.22949394,172.11953,1126.6137) translate(1007.2241,-3446.3024) matrix(2.6115489,0,0,2.6111572,-1732.401,-1467.6032)"/><path d="m 648.472,417.001 -7.777,184.539 -13.199,11.777 8.014,-189.716 c 3.77,-2.593 10.371,-6.6 12.962,-6.6 z" fill="#fac800" transform="matrix(0.22949394,0,0,0.22949394,172.11953,1126.6137) translate(1007.2241,-3446.3024) matrix(2.6115489,0,0,2.6111572,-1732.401,-1467.6032)"/><path d="m 664.261,430.199 -6.599,154.368 -13.195,13.506 8.012,-178.242 c 2.594,2.591 10.372,8.954 11.782,10.368 z" fill="#fac800" transform="matrix(0.22949394,0,0,0.22949394,172.11953,1126.6137) translate(1007.2241,-3446.3024) matrix(2.6115489,0,0,2.6111572,-1732.401,-1467.6032)"/><path d="m 678.638,441.983 -5.182,128.749 -10.605,10.366 6.6,-146.892 c 2.587,2.593 7.772,6.364 9.187,7.777 z" fill="#fac800" transform="matrix(0.22949394,0,0,0.22949394,172.11953,1126.6137) translate(1007.2241,-3446.3024) matrix(2.6115489,0,0,2.6111572,-1732.401,-1467.6032)"/><path d="m 694.194,448.582 -5.185,109.73 -10.371,8.411 5.185,-122.146 c 2.594,1.177 7.778,4.005 10.371,4.005 z" fill="#fac800" transform="matrix(0.22949394,0,0,0.22949394,172.11953,1126.6137) translate(1007.2241,-3446.3024) matrix(2.6115489,0,0,2.6111572,-1732.401,-1467.6032)"/><path d="m 708.572,448.582 -3.774,91.444 -10.603,10.372 4.007,-100.636 c 2.589,-10e-4 9.189,-10e-4 10.37,-1.18 z" fill="#fac800" transform="matrix(0.22949394,0,0,0.22949394,172.11953,1126.6137) translate(1007.2241,-3446.3024) matrix(2.6115489,0,0,2.6111572,-1732.401,-1467.6032)"/><path d="m 834.188,417.001 7.773,184.539 13.197,11.777 -8.01,-189.716 c -3.77,-2.593 -10.369,-6.6 -12.96,-6.6 z" fill="#fac800" transform="matrix(0.22949394,0,0,0.22949394,172.11953,1126.6137) translate(1007.2241,-3446.3024) matrix(2.6115489,0,0,2.6111572,-1732.401,-1467.6032)"/><path d="m 818.397,430.199 6.6,154.368 13.197,11.553 -8.011,-176.289 c -2.594,2.591 -10.371,8.954 -11.786,10.368 z" fill="#fac800" transform="matrix(0.22949394,0,0,0.22949394,172.11953,1126.6137) translate(1007.2241,-3446.3024) matrix(2.6115489,0,0,2.6111572,-1732.401,-1467.6032)"/><path transform="matrix(0.22949394,0,0,0.22949394,172.11953,1126.6137) translate(1007.2241,-3446.3024) matrix(2.6111572,0,0,2.6111572,-1732.4578,-1467.6032)" d="m 804.162,441.983 5.421,128.749 10.374,8.413 -6.6,-144.938 c -2.593,2.592 -7.78,6.363 -9.195,7.776 z" fill="#fac800"/><path d="m 788.465,448.582 5.186,107.777 10.369,8.411 -5.184,-120.192 c -2.594,1.176 -7.778,4.004 -10.371,4.004 z" fill="#fac800" transform="matrix(0.22949394,0,0,0.22949394,172.11953,1126.6137) translate(1007.2241,-3446.3024) matrix(2.6115489,0,0,2.6111572,-1732.401,-1467.6032)"/><path d="m 774.09,448.582 3.77,91.444 10.605,10.372 -4.006,-100.636 c -2.591,-10e-4 -9.193,-10e-4 -10.369,-1.18 z" fill="#fac800" transform="matrix(0.22949394,0,0,0.22949394,172.11953,1126.6137) translate(1007.2241,-3446.3024) matrix(2.6115489,0,0,2.6111572,-1732.401,-1467.6032)"/><path d="m 705.978,498.076 -31.343,111.239 43.13,6.601 18.379,-83.667 z" fill="#fff" stroke="#fac800" stroke-width="1.953" stroke-linecap="round" stroke-linejoin="round" transform="matrix(0.22949394,0,0,0.22949394,172.11953,1126.6137) translate(1007.2241,-3446.3024) matrix(2.6115489,0,0,2.6111572,-1732.401,-1467.6032)"/><path d="m 776.683,498.076 31.342,111.239 -43.126,6.601 -18.384,-83.667 z" fill="#fff" stroke="#fac800" stroke-width="1.953" stroke-linecap="round" stroke-linejoin="round" transform="matrix(0.22949394,0,0,0.22949394,172.11953,1126.6137) translate(1007.2241,-3446.3024) matrix(2.6115489,0,0,2.6111572,-1732.401,-1467.6032)"/><path d="m 695.608,536.021 3.771,9.189 11.785,-12.962" fill="none" stroke="#fac800" stroke-width="2.087" stroke-linecap="round" stroke-linejoin="round" transform="matrix(0.22949394,0,0,0.22949394,172.11953,1126.6137) translate(1007.2241,-3446.3024) matrix(2.6115489,0,0,2.6111572,-1732.401,-1467.6032)"/><path d="m 709.983,516.459 4.007,36.529 12.962,-16.968" fill="none" stroke="#fac800" stroke-width="2.087" stroke-linecap="round" stroke-linejoin="round" transform="matrix(0.22949394,0,0,0.22949394,172.11953,1126.6137) translate(1007.2241,-3446.3024) matrix(2.6115489,0,0,2.6111572,-1732.401,-1467.6032)"/><path d="m 721.768,542.618 7.777,19.562" fill="none" stroke="#fac800" stroke-width="2.087" stroke-linecap="round" stroke-linejoin="round" transform="matrix(0.22949394,0,0,0.22949394,172.11953,1126.6137) translate(1007.2241,-3446.3024) matrix(2.6115489,0,0,2.6111572,-1732.401,-1467.6032)"/><path d="m 728.37,567.363 -10.605,10.605 -6.6,-20.974 -6.367,11.784 -5.418,-12.965 -11.55,10.372" fill="none" stroke="#fac800" stroke-width="2.087" stroke-linecap="round" stroke-linejoin="round" transform="matrix(0.22949394,0,0,0.22949394,172.11953,1126.6137) translate(1007.2241,-3446.3024) matrix(2.6115489,0,0,2.6111572,-1732.401,-1467.6032)"/><path d="m 685.001,571.367 8.012,19.563 9.193,-11.785 5.184,15.793 10.373,-13.195 4.004,19.797" fill="none" stroke="#fac800" stroke-width="2.087" stroke-linecap="round" stroke-linejoin="round" transform="matrix(0.22949394,0,0,0.22949394,172.11953,1126.6137) translate(1007.2241,-3446.3024) matrix(2.6115489,0,0,2.6111572,-1732.401,-1467.6032)"/><path d="m 683.823,606.724 7.777,-10.604 6.601,17.198 7.777,-13.197 5.187,15.795 8.011,-6.601" fill="none" stroke="#fac800" stroke-width="2.087" stroke-linecap="round" stroke-linejoin="round" transform="matrix(0.22949394,0,0,0.22949394,172.11953,1126.6137) translate(1007.2241,-3446.3024) matrix(2.6115489,0,0,2.6111572,-1732.401,-1467.6032)"/><path d="m 787.048,536.021 -3.768,9.189 -11.784,-12.962" fill="none" stroke="#fac800" stroke-width="2.087" stroke-linecap="round" stroke-linejoin="round" transform="matrix(0.22949394,0,0,0.22949394,172.11953,1126.6137) translate(1007.2241,-3446.3024) matrix(2.6115489,0,0,2.6111572,-1732.401,-1467.6032)"/><path d="m 772.674,516.459 -3.77,36.529 -13.197,-16.968" fill="none" stroke="#fac800" stroke-width="2.087" stroke-linecap="round" stroke-linejoin="round" transform="matrix(0.22949394,0,0,0.22949394,172.11953,1126.6137) translate(1007.2241,-3446.3024) matrix(2.6115489,0,0,2.6111572,-1732.401,-1467.6032)"/><path d="m 760.89,542.618 -7.779,19.562" fill="none" stroke="#fac800" stroke-width="2.087" stroke-linecap="round" stroke-linejoin="round" transform="matrix(0.22949394,0,0,0.22949394,172.11953,1126.6137) translate(1007.2241,-3446.3024) matrix(2.6115489,0,0,2.6111572,-1732.401,-1467.6032)"/><path d="m 754.528,567.363 10.37,10.605 5.184,-20.974 7.777,11.784 5.42,-12.965 11.783,10.372" fill="none" stroke="#fac800" stroke-width="2.087" stroke-linecap="round" stroke-linejoin="round" transform="matrix(0.22949394,0,0,0.22949394,172.11953,1126.6137) translate(1007.2241,-3446.3024) matrix(2.6115489,0,0,2.6111572,-1732.401,-1467.6032)"/><path d="m 797.656,571.367 -8.015,19.563 -9.19,-11.785 -5.185,15.793 -10.368,-13.195 -4.008,19.797" fill="none" stroke="#fac800" stroke-width="2.087" stroke-linecap="round" stroke-linejoin="round" transform="matrix(0.22949394,0,0,0.22949394,172.11953,1126.6137) translate(1007.2241,-3446.3024) matrix(2.6115489,0,0,2.6111572,-1732.401,-1467.6032)"/><path d="m 798.835,606.724 -7.777,-10.604 -6.6,17.198 -7.775,-13.197 -5.188,15.795 -8.01,-6.601" fill="none" stroke="#fac800" stroke-width="2.087" stroke-linecap="round" stroke-linejoin="round" transform="matrix(0.22949394,0,0,0.22949394,172.11953,1126.6137) translate(1007.2241,-3446.3024) matrix(2.6115489,0,0,2.6111572,-1732.401,-1467.6032)"/><path d="m 696.787,609.314 c 10.603,1.415 22.388,2.592 31.582,1.415 5.18,0 8.952,8.955 -1.417,10.372 -9.188,1.175 -23.566,0 -31.344,-1.417 -6.599,-1.179 -20.974,-3.77 -30.168,-6.367 -9.191,-4.003 -2.589,-11.777 2.591,-10.601 8.015,2.591 18.386,5.186 28.756,6.598 z" fill="#fff" stroke="#fac800" stroke-width="2.087" stroke-linecap="round" stroke-linejoin="round" transform="matrix(0.22949394,0,0,0.22949394,172.11953,1126.6137) translate(1007.2241,-3446.3024) matrix(2.6115489,0,0,2.6111572,-1732.401,-1467.6032)"/><path d="m 785.873,609.314 c -10.607,1.415 -22.387,2.592 -31.345,1.415 -5.422,0 -9.193,8.955 1.178,10.372 9.192,1.175 23.568,0 31.341,-1.417 6.602,-1.179 20.977,-3.77 30.167,-6.367 9.194,-4.003 2.596,-11.777 -2.591,-10.601 -8.013,2.591 -18.382,5.186 -28.75,6.598 z" fill="#fff" stroke="#fac800" stroke-width="2.087" stroke-linecap="round" stroke-linejoin="round" transform="matrix(0.22949394,0,0,0.22949394,172.11953,1126.6137) translate(1007.2241,-3446.3024) matrix(2.6115489,0,0,2.6111572,-1732.401,-1467.6032)"/><path transform="matrix(0.22949394,0,0,0.22949394,172.11953,1126.6137) translate(1007.2241,-3446.3024) matrix(2.6111572,0,0,2.6111572,-1732.4578,-1467.6032)" d="m 664.382,604.132 c -8.013,-1.415 -11.784,7.774 -9.189,12.958 1.177,-2.592 6.599,-2.592 7.779,-5.184 1.41,-4.004 -1.18,-4.004 1.41,-7.774 z" fill="#fff" stroke="#fac800" stroke-width="2.087" stroke-linecap="round" stroke-linejoin="round"/><path d="m 695.607,628.234 c 0,-5.18 5.182,-4.543 5.182,-9.729 0,-2.591 -1.411,-6.6 -4.003,-6.6 -2.593,0 -5.187,2.592 -5.187,5.184 -1.179,5.187 4.008,5.966 4.008,11.145 z" fill="#fff" stroke="#fac800" stroke-width="2.087" stroke-linecap="round" stroke-linejoin="round" transform="matrix(0.22949394,0,0,0.22949394,172.11953,1126.6137) translate(1007.2241,-3446.3024) matrix(2.6115489,0,0,2.6111572,-1732.401,-1467.6032)"/><path d="m 732.914,613.317 c 7.771,0 7.001,10.374 3.229,15.559 0,-3.771 -6.598,-5.185 -6.598,-7.774 0,-4.012 5.957,-4.012 3.369,-7.785 z" fill="#fff" stroke="#fac800" stroke-width="2.087" stroke-linecap="round" stroke-linejoin="round" transform="matrix(0.22949394,0,0,0.22949394,172.11953,1126.6137) translate(1007.2241,-3446.3024) matrix(2.6115489,0,0,2.6111572,-1732.401,-1467.6032)"/><path transform="matrix(0.22949394,0,0,0.22949394,172.11953,1126.6137) translate(1007.2241,-3446.3024) matrix(2.6111572,0,0,2.6111572,-1732.4578,-1467.6032)" d="m 818.541,604.132 c 8.014,-1.415 11.787,7.774 9.193,12.958 -1.18,-2.592 -6.6,-2.592 -7.778,-5.184 -1.415,-4.004 1.179,-4.004 -1.415,-7.774 z" fill="#fff" stroke="#fac800" stroke-width="2.087" stroke-linecap="round" stroke-linejoin="round"/><path d="m 787.047,628.234 c 0,-5.18 -5.18,-4.543 -5.18,-9.729 0,-2.591 1.412,-6.6 4.005,-6.6 2.591,0 5.185,2.592 5.185,5.184 1.179,5.187 -4.01,5.966 -4.01,11.145 z" fill="#fff" stroke="#fac800" stroke-width="2.087" stroke-linecap="round" stroke-linejoin="round" transform="matrix(0.22949394,0,0,0.22949394,172.11953,1126.6137) translate(1007.2241,-3446.3024) matrix(2.6115489,0,0,2.6111572,-1732.401,-1467.6032)"/><path d="m 749.745,613.317 c -7.774,0 -7.003,10.374 -3.232,15.559 0,-3.771 6.597,-5.185 6.597,-7.774 10e-4,-4.012 -5.957,-4.012 -3.365,-7.785 z" fill="#fff" stroke="#fac800" stroke-width="2.087" stroke-linecap="round" stroke-linejoin="round" transform="matrix(0.22949394,0,0,0.22949394,172.11953,1126.6137) translate(1007.2241,-3446.3024) matrix(2.6115489,0,0,2.6111572,-1732.401,-1467.6032)"/><path transform="matrix(0.22949394,0,0,0.22949394,172.11953,1126.6137) translate(1007.2241,-3446.3024) matrix(2.6111572,0,0,2.6111572,-1732.4578,-1467.6032)" d="m 666.977,606.724 c 2.596,0 6.601,1.179 7.78,2.591 z" fill="#fff" stroke="#fac800" stroke-width="1.465" stroke-linecap="round" stroke-linejoin="round"/><path transform="matrix(0.22949394,0,0,0.22949394,172.11953,1126.6137) translate(1007.2241,-3446.3024) matrix(2.6111572,0,0,2.6111572,-1732.4578,-1467.6032)" d="m 679.94,610.729 c 1.416,0 6.602,1.177 9.194,2.588 z" fill="#fff" stroke="#fac800" stroke-width="1.465" stroke-linecap="round" stroke-linejoin="round"/><path transform="matrix(0.22949394,0,0,0.22949394,172.11953,1126.6137) translate(1007.2241,-3446.3024) matrix(2.6111572,0,0,2.6111572,-1732.4578,-1467.6032)" d="m 727.083,615.915 c -2.592,0 -7.778,0 -9.189,1.175 z" fill="#fff" stroke="#fac800" stroke-width="1.465" stroke-linecap="round" stroke-linejoin="round"/><path transform="matrix(0.22949394,0,0,0.22949394,172.11953,1126.6137) translate(1007.2241,-3446.3024) matrix(2.6111572,0,0,2.6111572,-1732.4578,-1467.6032)" d="m 712.704,615.915 c -1.411,-1.417 -6.599,-1.417 -9.19,0 z" fill="#fff" stroke="#fac800" stroke-width="1.465" stroke-linecap="round" stroke-linejoin="round"/><path transform="matrix(0.22949394,0,0,0.22949394,172.11953,1126.6137) translate(1007.2241,-3446.3024) matrix(2.6111572,0,0,2.6111572,-1732.4578,-1467.6032)" d="m 815.949,606.724 c -2.592,0 -6.366,1.179 -7.78,2.591 z" fill="#fff" stroke="#fac800" stroke-width="1.465" stroke-linecap="round" stroke-linejoin="round"/><path transform="matrix(0.22949394,0,0,0.22949394,172.11953,1126.6137) translate(1007.2241,-3446.3024) matrix(2.6111572,0,0,2.6111572,-1732.4578,-1467.6032)" d="m 802.985,610.729 c -1.413,0 -6.6,1.177 -9.193,2.588 z" fill="#fff" stroke="#fac800" stroke-width="1.465" stroke-linecap="round" stroke-linejoin="round"/><path transform="matrix(0.22949394,0,0,0.22949394,172.11953,1126.6137) translate(1007.2241,-3446.3024) matrix(2.6111572,0,0,2.6111572,-1732.4578,-1467.6032)" d="m 755.842,615.915 c 2.595,0 7.78,0 9.193,1.175 z" fill="#fff" stroke="#fac800" stroke-width="1.465" stroke-linecap="round" stroke-linejoin="round"/><path transform="matrix(0.22949394,0,0,0.22949394,172.11953,1126.6137) translate(1007.2241,-3446.3024) matrix(2.6111572,0,0,2.6111572,-1732.4578,-1467.6032)" d="m 770.22,615.915 c 1.413,-1.417 6.602,-1.417 9.193,0 z" fill="#fff" stroke="#fac800" stroke-width="1.465" stroke-linecap="round" stroke-linejoin="round"/><path transform="matrix(0.22949394,0,0,0.22949394,172.11953,1126.6137) translate(1007.2241,-3446.3024) matrix(2.6111572,0,0,2.6111572,-1732.4578,-1467.6032)" d="m 757.493,448.11 v 82.255 c -4.715,5.184 -10.137,9.66 -16.031,13.666 -5.893,-4.006 -11.313,-8.482 -16.028,-13.666 v -82.49 c 5.893,-2.121 11.312,-4.949 16.028,-8.484 4.478,3.77 9.9,6.599 16.031,8.719 z" fill="#fff"/><path d="m 750.82302,1463.732 c 54.50961,-41.9251 49.8355,-103.3398 49.8355,-103.3398 -1.4383,0.2876 -2.80463,0.4314 -4.24294,0.4314 -11.43412,0 -38.70546,-6.5413 -45.06787,-14.85 -6.81528,7.5204 -34.68429,14.85 -46.04644,14.85 -1.43829,0 -2.87644,-0.1438 -4.24277,-0.4314 0,0 -4.74626,61.413 49.76369,103.3398 z" fill="#fff" stroke="#fac800" stroke-width="1.92" transform="matrix(0.22949394,0,0,0.22949394,172.11953,1126.6137) translate(1007.2241,-3446.3024) matrix(2.6111572,0,0,2.6111572,-1758.459,-3847.365)"/><path d="m 796.43027,1364.8893 c -0.4692,0.029 -0.94066,0.044 -1.41559,0.044 -10.36271,0 -34.43213,-5.3167 -43.71022,-13.288 -9.71812,7.3636 -34.18499,13.2879 -44.37986,13.2879 -0.47819,0 -0.95061,-0.058 -1.41885,-0.1444 -0.0237,2.3225 0.097,4.7299 0.24127,6.9195 0.53938,8.1839 1.97485,16.397 4.1541,24.3007 6.86021,24.8735 20.90075,46.0114 41.03333,62.046 20.14929,-16.048 34.2067,-37.2059 41.08177,-62.0978 2.18275,-7.9019 3.62273,-16.1142 4.16729,-24.2973 0.0806,-2.2608 0.25086,-4.5369 0.24676,-6.7706 z" fill="none" stroke="#fac800" stroke-width="1.53" transform="matrix(0.22949394,0,0,0.22949394,172.11953,1126.6137) translate(1007.2241,-3446.3024) matrix(2.6111572,0,0,2.6111572,-1758.459,-3847.365)"/><g transform="matrix(0.22949394,0,0,0.22949394,172.11953,1126.6137) translate(1007.2241,-3446.3024) matrix(2.6111572,0,0,2.6111572,-1758.459,-3847.365) matrix(6.2443176,0,0,6.2443176,1479.3863,231.70758)" clip-path="url(#a)" fill="#fff" fill-rule="evenodd" stroke="#fcd116"><path d="m -123.4522,177.24751 h 4.883 v 17.198 h -4.883 z" fill="#fac800" stroke="#fac800"/><path d="m -114.21,179.26 h 4.883 l -0.0454,2.21407 0.0454,14.98393 h -4.883 z" fill="#fac800" stroke="#fac800"/><path d="m -119.093,179.26 h 4.883 v 17.198 h -4.883 z" stroke="none"/></g><g><path d="m 760.80099,423.601 c 6.362,3.773 11.87401,2.594 15.88301,2.594 -13.197,-9.194 -16.971,-33.938 -15.792,-44.311 2.595,-20.976 -2.589,-32.756 -15.556,-35.351 -2.592,0 -4.007,-1.413 -9.191,-1.413 -4.006,-1.177 -6.995,2.592 -8.412,5.183 -4.006,-2.591 -7.377,-1.175 -11.147,-3.77 -4.01,-1.413 -10.607,0 -10.607,9.19 l 2.563,-1.075 c 1.175,0.181 3.346,1.455 5.979,2.905 3.409,2.687 8.428,4.534 9.842,13.726 2.591,19.562 0,37.945 -18.383,54.916 4.006,0 10.607,0 16.969,-3.773 -2.592,3.773 -3.771,5.185 -6.362,7.776 7.776,-1.414 14.377,-4.003 18.146,-10.369 1.413,2.592 5.185,6.365 6.598,8.955 1.415,-2.59 5.186,-6.363 6.599,-8.955 3.771,6.365 10.374,8.955 18.147,10.369 -2.591,-2.591 -2.68301,-2.824 -5.27601,-6.597 z" fill="#fff" stroke="#fac800" stroke-width="1.952" stroke-linecap="round" transform="matrix(0.22949394,0,0,0.22949394,172.11953,1126.6137) translate(1007.2241,-3446.3024) matrix(2.6111572,0,0,2.6111572,-1732.46,-1467.6024) matrix(1.00015,0,0,1,0.021783,0)"/><path d="m 753.112,397.441 c 0,10.606 3.68399,18.38 7.68899,26.16" fill="none" stroke="#fac800" stroke-width="2.087" stroke-linecap="round" stroke-linejoin="round" transform="matrix(0.22949394,0,0,0.22949394,172.11953,1126.6137) translate(1007.2241,-3446.3024) matrix(2.6111572,0,0,2.6111572,-1732.46,-1467.6024) matrix(1.00015,0,0,1,0.021783,0)"/><path d="m 747.928,419.83 c -2.592,-4.009 -4.003,-11.783 -4.003,-22.389" fill="none" stroke="#fac800" stroke-width="2.087" stroke-linecap="round" stroke-linejoin="round" transform="matrix(0.22949394,0,0,0.22949394,172.11953,1126.6137) translate(1007.2241,-3446.3024) matrix(2.6111572,0,0,2.6111572,-1732.46,-1467.6024) matrix(1.00015,0,0,1,0.021783,0)"/><path d="m 729.546,397.441 c 0,10.606 -3.412,18.38 -7.417,26.16" fill="none" stroke="#fac800" stroke-width="2.087" stroke-linecap="round" stroke-linejoin="round" transform="matrix(0.22949394,0,0,0.22949394,172.11953,1126.6137) translate(1007.2241,-3446.3024) matrix(2.6111572,0,0,2.6111572,-1732.46,-1467.6024) matrix(1.00015,0,0,1,0.021783,0)"/><path d="m 734.731,419.83 c 2.591,-4.009 4.003,-11.783 4.003,-22.389" fill="none" stroke="#fac800" stroke-width="2.087" stroke-linecap="round" stroke-linejoin="round" transform="matrix(0.22949394,0,0,0.22949394,172.11953,1126.6137) translate(1007.2241,-3446.3024) matrix(2.6111572,0,0,2.6111572,-1732.46,-1467.6024) matrix(1.00015,0,0,1,0.021783,0)"/><path d="m 706.959,354.492 c 2.766,0.181 3.979,1.139 7.689,3.062 2.596,1.417 8.429,4.534 9.844,12.548 -1.415,-4.007 1.176,-8.015 4.009,-6.598 -4.008,-9.193 -16.357,-11.604 -21.542,-9.012 z" fill="#fac800" stroke="#fac800" stroke-width=".977" stroke-linecap="round" stroke-linejoin="round" transform="matrix(0.22949394,0,0,0.22949394,172.11953,1126.6137) translate(1007.2241,-3446.3024) matrix(2.6111572,0,0,2.6111572,-1732.46,-1467.6024)"/><path d="m 759.848,358.32 c -2.594,-6.602 -7.264,-11.811 -13.628,-12.989 -3.283,-0.994 -6.668,-0.708 -10.441,-0.708 -4.007,-1.177 -7.278,3.089 -8.696,5.68 4.01,2.831 4.906,5.709 6.965,6.6 4.002,1.417 6.002,-0.002 10.01,-3.769 4.003,-4.005 13.196,-2.83 15.79,5.186 z" fill="#fac800" stroke="#fac800" stroke-width=".977" stroke-linecap="round" stroke-linejoin="round" transform="matrix(0.22949394,0,0,0.22949394,172.11953,1126.6137) translate(1007.2241,-3446.3024) matrix(2.6111572,0,0,2.6111572,-1732.46,-1467.6024)"/><path d="m 734.863,348.189 c -2.594,0 -2.594,4.006 0,4.006 2.591,0.001 2.591,-4.006 0,-4.006 z" fill="#fff" stroke="#fff" stroke-width="2.087" stroke-linecap="round" stroke-linejoin="round" transform="matrix(0.22949394,0,0,0.22949394,172.11953,1126.6137) translate(1007.2241,-3446.3024) matrix(2.6111572,0,0,2.6111572,-1732.46,-1467.6024)"/></g></svg>